<?xml version="1.0" standalone="no"?>
<!DOCTYPE svg PUBLIC "-//W3C//DTD SVG 20010904//EN"
 "http://www.w3.org/TR/2001/REC-SVG-20010904/DTD/svg10.dtd">
<svg version="1.0" xmlns="http://www.w3.org/2000/svg"
 width="371.000000pt" height="371.000000pt" viewBox="0 0 371.000000 371.000000"
 preserveAspectRatio="xMidYMid meet">
<metadata>
Created by potrace 1.14, written by Peter Selinger 2001-2017
</metadata>
<g transform="translate(0.000000,371.000000) scale(0.100000,-0.100000)"
fill="#000000" stroke="none">
<path d="M2144 3671 c-22 -55 -60 -63 -174 -37 -14 3 -47 9 -75 12 l-50 6 42
-22 c156 -81 258 -310 267 -605 1 -40 11 -65 24 -65 4 0 7 167 7 372 0 284 -3
372 -12 375 -7 3 -20 -13 -29 -36z"/>
<path d="M1292 3650 c-173 -62 -291 -195 -342 -387 -15 -55 -18 -96 -16 -208
2 -77 7 -153 10 -170 18 -77 71 -218 113 -295 79 -147 254 -383 395 -535 41
-44 96 -102 121 -130 26 -27 47 -59 48 -70 0 -11 1 -391 1 -845 1 -775 0 -828
-17 -860 -26 -51 -84 -90 -155 -105 -32 -7 -49 -20 -50 -36 0 -4 108 -7 240
-6 l240 0 0 293 0 293 60 32 c133 71 241 208 282 358 28 102 31 318 5 439 -41
189 -127 361 -271 541 l-76 95 0 540 0 541 -240 0 c-188 0 -240 -3 -240 -13 0
-13 21 -24 87 -41 23 -6 56 -23 73 -37 61 -52 62 -59 62 -368 -1 -155 -1 -297
-1 -316 l-1 -35 -51 55 c-146 157 -268 319 -326 435 -32 63 -86 205 -78 205 2
0 0 12 -6 27 -17 44 -19 212 -3 293 23 123 91 241 178 308 35 27 27 27 -42 2z
m684 -2255 c91 -191 96 -392 13 -559 -27 -55 -95 -156 -105 -156 -2 0 -4 199
-4 443 l0 442 32 -50 c17 -27 46 -81 64 -120z"/>
<path d="M2315 3110 c10 -11 30 -20 45 -20 37 0 125 -27 171 -53 151 -85 218
-269 219 -603 0 -19 6 -34 15 -38 13 -5 15 40 15 364 l0 370 -242 0 c-240 0
-241 0 -223 -20z"/>
<path d="M2482 2051 c-7 -4 -15 -23 -18 -42 -28 -215 -72 -286 -186 -303 -102
-15 -157 -35 -102 -37 16 0 36 -2 44 -3 8 -2 37 -6 65 -9 56 -7 92 -30 118
-75 21 -37 44 -116 52 -182 9 -71 14 -87 28 -93 11 -4 14 62 14 374 0 208 0
379 -1 379 -1 0 -7 -4 -14 -9z"/>
<path d="M920 905 c0 -373 4 -414 32 -348 27 64 68 77 158 54 19 -6 60 -13 90
-16 l55 -6 -51 30 c-96 56 -171 165 -214 311 -22 77 -29 119 -36 225 -6 98
-12 125 -24 125 -6 0 -10 -137 -10 -375z"/>
<path d="M2763 738 c-8 -9 -15 -60 -17 -134 -7 -181 -44 -327 -106 -412 -58
-81 -189 -147 -297 -151 -12 -1 -27 -9 -32 -19 -9 -16 5 -17 227 -17 l237 0 3
188 c5 343 -1 562 -15 545z"/>
</g>
</svg>
