<svg width="562.151" height="148.24" xmlns="http://www.w3.org/2000/svg">
    <g fill="#0c0c0c">
        <path
            d="M43.976 3.583s15.307 2.611 15.367 31.099l1.275.851V.849l-1.519.547s.183 4.676-5.223 3.644-7.105-1.274-9.9-1.457zM16.643 144.56s-15.307-2.611-15.367-31.1L0 112.61v34.683l1.519-.546s-.183-4.678 5.223-3.645 7.106 1.273 9.901 1.458zM21.319 2.793s-10.206 4.616-10.69 19.923c-.486 15.306 8.261 27.697 24.539 43.49 16.278 15.793 23.082 25.027 26.483 36.203 3.401 11.175 6.56 38.144-23.082 44.219 0 0 20.267-10.831 14.82-32.314-4.373-17.25-22.838-30.371-35.229-45.677C5.77 53.33-.79 42.396.667 25.632 2.611 9.353 15.002 3.765 21.319 2.793zM99.796 73.616c0-34.942 9.656-64.336 22.779-73.045-20.188 6.748-35.414 36.88-35.414 73.045 0 36.167 15.227 66.3 35.416 73.048-13.123-8.709-22.781-38.103-22.781-73.048zM137.806 0c13.59 7.917 23.702 37.86 23.702 73.616 0 35.757-10.113 65.703-23.704 73.617 21.123-5.438 37.31-36.325 37.31-73.617 0-37.289-16.185-68.175-37.308-73.616zM263.505 125.326c0 6.989-2.144 20.207-26.839 20.207-6.911 0-14.661-4.43-14.661-9.09V10.892c0-4.545 5.332-8.239 12.004-8.421l.748-1.378h-36.563l.75 1.602c6.163.525 10.184 3.753 10.184 8.052v126.228c0 4.299-4.098 7.599-10.262 8.123l-.672 1.53h68.029v-34.424l-2.243 1.688zM439.533 145.17l-.219 1.395 36.131-.014-1.346-1.62c-6.289-.528-11.479-3.794-13.102-8.144L422.639 33.939h-.188l-8.889-23.792c-1.717-4.598 2.16-8.337 8.686-8.524l.219-1.394-36.132.013 1.347 1.621c6.288.528 11.479 3.793 13.102 8.144l38.359 102.849h.188l8.889 23.792c1.714 4.596-2.161 8.335-8.687 8.522zM496.252 145.097l-.672 1.53h23.201V1.092H495.58l.75 1.602c6.162.525 10.182 3.753 10.182 8.052v126.228c0 4.299-4.098 7.599-10.26 8.123zM353.079 10.674v27.218l2.068-17.493v-9.725c.046-4.262 4.053-7.458 10.181-7.98l.749-1.602H342.15l.749 1.602c6.129.522 10.134 3.718 10.18 7.98zM539.947 67.165l-8.674 1.69 8.51 1.016c3.914.326 6.752 6.333 7.229 15.382l1.471 1.105V51.032l-1.471 1.105c-.477 9.05-3.153 14.506-7.065 15.028zM448.896 18.644l2.916-3.758c4.02-9.599 5.91-12.191 16.828-12.191l1.584-1.602H440.04l3.039 1.602c7.09-.182 9.389 2.239 7.969 7.98zM411.418 123.614l-5.082 9.906c-4.021 9.598-5.377 11.462-16.296 11.462l-1.583 1.6h30.182l-3.039-1.6c-7.088.181-9.389-2.24-7.969-7.98zM539.008 1.335h23.143v34.439l-1.467-.95v-5.786s-.295-14.34-6.125-20.293c-5.832-5.953-14.033-5.832-14.033-5.832zM539.008 146.565h23.143v-34.439l-1.467.951v5.785s-.295 14.342-6.125 20.294c-5.832 5.951-14.033 5.83-14.033 5.83zM322.69 145.48c-11.457-1.146-17.31-16.013-17.31-26.109l.081-16.721V10.892c0-4.545 5.332-8.239 12.004-8.421l.748-1.378h-36.561l.749 1.602c6.164.525 10.183 3.753 10.183 8.052v86.454l-.045 21.736s-.65 27.018 26.545 29.14c20.34 1.587 25.678-8.942 25.678-8.942s-9.087 7.645-22.072 6.345z" />
    </g>
</svg>